{"title":"Battle.In.Seattle.2007.DVDRiP.XViD.AC3.Optional.NORDIC.Zen_Bud","uid":5821110,"size":1485939174,"categoryP":"video","categoryS":"movies","magnet":"?xt=urn:btih:40f9ca587213a359236d38daa661b5bc53adc8cf&amp;dn=Battle.In.Seattle.2007.DVDRiP.XViD.AC3.Optional.NORDIC.Zen_Bud&amp;tr=udp%3A%2F%2Ftracker.openbittorrent.com%3A80&amp;tr=udp%3A%2F%2Fopen.demonii.com%3A1337&amp;tr=udp%3A%2F%2Ftracker.coppersurfer.tk%3A6969&amp;tr=udp%3A%2F%2Fexodus.desync.com%3A6969","seeders":0,"leechers":0,"uploader":"Zen_Bud","files":-1,"time":1284047138,"description":"\nComplete name                    : Battle.In.Seattle.2007.avi\nFormat                           : AVI\nFile size                        : 1.37 GiB\nDuration                         : 1h 35mn\nOverall bit rate                 : 2 061 Kbps\n\nVideo\n\nFormat                           : MPEG-4 Visual\nCodec ID/Hint                    : XviD\nDuration                         : 1h 35mn\nBit rate                         : 1 602 Kbps\nWidth                            : 720 pixels\nHeight                           : 552 pixels\nDisplay aspect ratio             : 1.855\nStream size                      : 1.06 GiB (78%)\nWriting library                  : XviD 1.1.2 (UTC 2006-11-01)\n\nAudio\n\nFormat                           : AC-3\nDuration                         : 1h 35mn\nBit rate                         : 448 Kbps\nChannel(s)                       : 6 channels\nChannel positions                : Front: L C R, Side: L R, LFE\nSampling rate                    : 48.0 KHz\nBit depth                        : 16 bits\nStream size                      : 305 MiB (22%)\n\n\nText #1\nLanguage                         : Danish\n\nText #2\nLanguage                         : Norwegian\n\nText #3\nLanguage                         : Finnish\n\nText #4\nLanguage                         : Swedish","torrent":{"xt":"urn:btih:40f9ca587213a359236d38daa661b5bc53adc8cf","amp;dn":"Battle.In.Seattle.2007.DVDRiP.XViD.AC3.Optional.NORDIC.Zen_Bud","amp;tr":["udp%3A%2F%2Ftracker.openbittorrent.com%3A80","udp%3A%2F%2Fopen.demonii.com%3A1337","udp%3A%2F%2Ftracker.coppersurfer.tk%3A6969","udp%3A%2F%2Fexodus.desync.com%3A6969"],"infoHash":"40f9ca587213a359236d38daa661b5bc53adc8cf","infoHashBuffer":{"type":"Buffer","data":[64,249,202,88,114,19,163,89,35,109,56,218,166,97,181,188,83,173,200,207]},"announce":[],"urlList":[]}}